<svg xmlns="http://www.w3.org/2000/svg" viewBox="0 0 1200 800" role="img" aria-labelledby="title">
<title id="title">Four-stroke cycle</title>
<rect width="1200" height="800" fill="#FFFFFF"/>
<g stroke="#0B1F3A" stroke-width="8" stroke-linecap="round" stroke-linejoin="round" fill="none">
<rect x="90" y="200" width="180" height="360" rx="24" fill="none" stroke="#0B1F3A"/><circle cx="180" cy="470" r="55" fill="#E5E7EB" stroke="#0B1F3A"/><line x1="180" y1="250" x2="180" y2="420" stroke="#0B1F3A" stroke-width="10"/><rect x="350" y="200" width="180" height="360" rx="24" fill="none" stroke="#0B1F3A"/><circle cx="440" cy="470" r="55" fill="#E5E7EB" stroke="#0B1F3A"/><line x1="440" y1="250" x2="440" y2="420" stroke="#0B1F3A" stroke-width="10"/><rect x="610" y="200" width="180" height="360" rx="24" fill="none" stroke="#0B1F3A"/><circle cx="700" cy="470" r="55" fill="#E5E7EB" stroke="#0B1F3A"/><line x1="700" y1="250" x2="700" y2="420" stroke="#0B1F3A" stroke-width="10"/><rect x="870" y="200" width="180" height="360" rx="24" fill="none" stroke="#0B1F3A"/><circle cx="960" cy="470" r="55" fill="#E5E7EB" stroke="#0B1F3A"/><line x1="960" y1="250" x2="960" y2="420" stroke="#0B1F3A" stroke-width="10"/><line x1="70" y1="320" x2="150" y2="320" stroke="#F97316" stroke-width="8"/><polygon points="130.94744111674234,331.0 150,320 130.94744111674234,309.0" fill="#F97316" stroke="#F97316" stroke-width="3"/><line x1="440" y1="520" x2="440" y2="300" stroke="#F97316" stroke-width="8"/><polygon points="451.0,319.05255888325763 440,300 429.0,319.05255888325763" fill="#F97316" stroke="#F97316" stroke-width="3"/><line x1="700" y1="300" x2="700" y2="520" stroke="#F97316" stroke-width="8"/><polygon points="689.0,500.94744111674237 700,520 711.0,500.94744111674237" fill="#F97316" stroke="#F97316" stroke-width="3"/><line x1="970" y1="320" x2="1110" y2="320" stroke="#F97316" stroke-width="8"/><polygon points="1090.9474411167423,331.0 1110,320 1090.9474411167423,309.0" fill="#F97316" stroke="#F97316" stroke-width="3"/><circle cx="155" cy="240" r="18" fill="#F97316" stroke="#0B1F3A"/><circle cx="465" cy="240" r="18" fill="#F97316" stroke="#0B1F3A"/><circle cx="725" cy="240" r="18" fill="#F97316" stroke="#0B1F3A"/><circle cx="985" cy="240" r="18" fill="#F97316" stroke="#0B1F3A"/>
</g>
</svg>